HIERARCHY
ROOT root
{
	OFFSET	0	13.1	24.9
	CHANNELS 6  Xposition Yposition Zposition Xrotation Yrotation Zrotation
	JOINT spine_1
	{
		OFFSET	0	9.99999	0
		CHANNELS 3  Xrotation Yrotation Zrotation
		JOINT spine_2
		{
			OFFSET	0	112	-10
			CHANNELS 3  Xrotation Yrotation Zrotation
			JOINT spine_3
			{
				OFFSET	0	206.5	19.3
				CHANNELS 3  Xrotation Yrotation Zrotation
				JOINT spine_4
				{
					OFFSET	0	110.4	14.6
					CHANNELS 3  Xrotation Yrotation Zrotation
					JOINT neck_1
					{
						OFFSET	0	71.8	-50.3
						CHANNELS 3  Xrotation Yrotation Zrotation
						JOINT neck_2
						{
							OFFSET	0	86.2	-25.8
							CHANNELS 3  Xrotation Yrotation Zrotation
							JOINT head_ee
							{
								OFFSET	0	179.8	-8.7
								CHANNELS 3  Xrotation Yrotation Zrotation
								End Site
								{
									OFFSET	1	0	0
								}
							}
						}
					}
					JOINT left_clavicle
					{
						OFFSET	-43.2	22.4	-70.8
						CHANNELS 3  Xrotation Yrotation Zrotation
						JOINT left_shoulder
						{
							OFFSET	-93.9	-5.79999	48.7
							CHANNELS 3  Xrotation Yrotation Zrotation
							JOINT left_elbow
							{
								OFFSET	-291.4	-30.8	15.2
								CHANNELS 3  Xrotation Yrotation Zrotation
								JOINT left_lowarm_twist
								{
									OFFSET	-110.7	-3.89999	13.6
									CHANNELS 3  Xrotation Yrotation Zrotation
									JOINT left_hand
									{
										OFFSET	-110.7	-3.89999	13.6
										CHANNELS 3  Xrotation Yrotation Zrotation
										JOINT left_ee
										{
											OFFSET	-80.8	-5.10001	12.1
											CHANNELS 3  Xrotation Yrotation Zrotation
											End Site
											{
												OFFSET	1	0	0
											}
										}
									}
								}
							}
						}
					}
					JOINT right_clavicle
					{
						OFFSET	43.2	22.4	-70.8
						CHANNELS 3  Xrotation Yrotation Zrotation
						JOINT right_shoulder
						{
							OFFSET	93.9	-5.79999	48.7
							CHANNELS 3  Xrotation Yrotation Zrotation
							JOINT right_elbow
							{
								OFFSET	291.4	-30.8	15.2
								CHANNELS 3  Xrotation Yrotation Zrotation
								JOINT right_lowarm_twist
								{
									OFFSET	110.7	-3.89999	13.6
									CHANNELS 3  Xrotation Yrotation Zrotation
									JOINT right_hand
									{
										OFFSET	110.7	-3.89999	13.6
										CHANNELS 3  Xrotation Yrotation Zrotation
										JOINT right_ee
										{
											OFFSET	80.8	-5.10001	12.1
											CHANNELS 3  Xrotation Yrotation Zrotation
											End Site
											{
												OFFSET	1	0	0
											}
										}
									}
								}
							}
						}
					}
				}
			}
		}
	}
	JOINT left_hip
	{
		OFFSET	-82.8	-127.5	0.300001
		CHANNELS 3  Xrotation Yrotation Zrotation
		JOINT left_knee
		{
			OFFSET	-28.2	-396.7	2.2
			CHANNELS 3  Xrotation Yrotation Zrotation
			JOINT left_ankle
			{
				OFFSET	-11.7	-411.3	35.4
				CHANNELS 3  Xrotation Yrotation Zrotation
				JOINT left_toes
				{
					OFFSET	0	-60	-88.6
					CHANNELS 3  Xrotation Yrotation Zrotation
					JOINT left_foot_ee
					{
						OFFSET	-22.5	-16.5	-42.2
						CHANNELS 3  Xrotation Yrotation Zrotation
						End Site
						{
							OFFSET	1	0	0
						}
					}
				}
			}
		}
	}
	JOINT right_hip
	{
		OFFSET	82.8	-127.5	0.300001
		CHANNELS 3  Xrotation Yrotation Zrotation
		JOINT right_knee
		{
			OFFSET	28.2	-396.7	2.2
			CHANNELS 3  Xrotation Yrotation Zrotation
			JOINT right_ankle
			{
				OFFSET	11.7	-411.3	35.4
				CHANNELS 3  Xrotation Yrotation Zrotation
				JOINT right_toes
				{
					OFFSET	0	-60	-88.6
					CHANNELS 3  Xrotation Yrotation Zrotation
					JOINT right_foot_ee
					{
						OFFSET	22.5	-16.5	-42.2
						CHANNELS 3  Xrotation Yrotation Zrotation
						End Site
						{
							OFFSET	1	0	0
						}
					}
				}
			}
		}
	}
}
MOTION
Frames: 6
Frame Time: 0.02
1183.55362527 732.179 -1674.54160682 -8.27357526326 27.751865371 -3.83897577985 3.37004 0.224703 1.73342 3.3717 0.113962 1.7442 3.37449 -0.152976 1.74122 3.37028 0.123893 1.74353 -17.0055 19.0657 3.70134 -18.4852 34.5785 11.0772 -0.0 0.0 -0.0 3.97061 -3.76262 7.45365 -31.3721 -25.6561 79.9507 0.781344 -21.1591 0.145938 -19.9951 -1.11578 2.28739 -5.91262 21.6161 -27.1091 -0.0 0.0 -0.0 7.26653 -5.98866 -14.0159 7.767 55.9379 -78.0786 0.36155 10.1543 -0.0321223 32.6494 0.0231055 4.11478 -0.0551866 -3.49798 -1.10224 0.0 0.0 0.0 30.7344 16.2432 3.28536 -63.9112 -2.63679 8.94176 19.102 22.3084 -2.71222 40.1387 -0.0 -0.0 -0.0 0.0 -0.0 31.3207 30.7884 -2.64728 -27.0964 -0.144282 -4.11715 23.0468 29.2839 3.83519 -11.3665 0.0 0.0 0.0 0.0 0.0 
1171.64678461 733.1 -1688.59575345 -8.58347842064 28.6259973022 -3.34881152015 3.43695 0.26652 1.84847 3.43883 0.148378 1.86168 3.44285 -0.134619 1.86272 3.43805 0.161201 1.86061 -15.3435 19.3109 2.09306 -16.7071 35.766 9.11783 -0.0 0.0 -0.0 3.74431 -3.09306 7.04285 -34.1517 -27.6716 80.4927 0.794141 -21.4743 0.15059 -18.9645 -1.03918 2.17992 -5.24289 19.4574 -24.2909 -0.0 0.0 -0.0 7.42854 -4.28721 -14.372 9.10306 55.2859 -78.9258 0.358122 10.06 -0.0315207 33.1042 0.0399783 4.1704 0.0644115 -3.7771 -2.00834 0.0 0.0 0.0 33.8199 17.4999 1.56561 -66.9803 -2.99897 9.24721 19.4681 22.2601 -2.7594 39.7508 -0.0 -0.0 -0.0 0.0 -0.0 29.9244 23.7913 -0.739881 -26.9588 -0.148486 -4.09644 22.3615 30.8582 3.81457 -11.3959 0.0 0.0 0.0 0.0 0.0 
1145.12692408 731.905 -1697.07165954 -9.13908579798 29.6103330533 -2.19448563039 3.47217 0.305667 1.74979 3.47385 0.193722 1.76569 3.4791 -0.074141 1.77473 3.47477 0.207031 1.76418 -14.5322 19.3466 1.25342 -15.8109 36.237 8.05807 -0.0 0.0 -0.0 3.85117 -2.21066 7.30658 -36.5071 -29.0804 81.3107 0.794451 -21.4819 0.150703 -18.2382 -0.986366 2.10336 -4.85006 18.2961 -22.5099 -0.0 0.0 -0.0 7.59068 -3.16483 -14.7133 10.9875 54.9364 -79.395 0.363681 10.2129 -0.0324989 33.3871 0.0506961 4.20494 0.152436 -3.79615 -2.59747 0.0 0.0 0.0 36.2691 17.707 0.336356 -68.7225 -3.21171 9.41189 20.7965 21.7965 -2.92493 39.6295 -0.0 -0.0 -0.0 0.0 -0.0 29.1962 17.6344 1.25093 -26.9813 -0.1478 -4.09983 22.1128 32.0097 3.83814 -11.4116 0.0 0.0 0.0 0.0 0.0 
1091.74211477 730.698 -1706.88140373 -9.18822556285 33.2984712321 -0.756390429866 3.98328 0.310898 1.72437 3.98491 0.200559 1.74065 3.99007 -0.0479876 1.7515 3.98586 0.22919 1.73711 -12.4043 19.0755 -0.578103 -13.3452 36.6158 5.43118 -0.0 0.0 -0.0 3.84124 -1.31283 7.33768 -40.303 -31.911 84.8611 0.74301 -20.2069 0.132398 -17.3593 -0.923765 2.00984 -4.13811 16.8527 -18.7914 -0.0 0.0 -0.0 7.90479 2.87424 -15.4196 10.8712 52.0424 -77.5201 0.455733 12.7218 -0.0508041 35.9261 0.154496 4.51242 0.6714 -4.45631 -6.2973 0.0 0.0 0.0 38.8707 14.5437 -2.56108 -56.2367 -1.80762 8.09796 13.4407 22.2758 -1.94968 35.0096 -0.0 -0.0 -0.0 0.0 -0.0 27.6668 6.8488 4.59984 -30.0392 -0.0425628 -4.55727 22.019 30.6101 3.75161 -11.3006 0.0 0.0 0.0 0.0 0.0 
1053.08133939 727.712 -1714.98949495 -9.59704622104 38.3876113964 0.652498522733 4.3915 0.278475 1.45 4.39266 0.185653 1.46478 4.39661 -0.0131925 1.47644 4.39363 0.220123 1.46 -12.6987 19.3135 0.0471803 -13.6992 36.7115 6.21813 -0.0 0.0 -0.0 4.05729 2.01014 7.9208 -42.4098 -33.314 84.4388 0.615824 -16.965 0.0918443 -18.2208 -0.985111 2.10151 -3.88561 16.9634 -17.0896 -0.0 0.0 -0.0 8.29391 4.26191 -16.2232 8.1699 49.7177 -73.0456 0.573219 15.8524 -0.0798084 38.1694 0.257486 4.7801 0.861831 -4.92291 -7.74525 0.0 0.0 0.0 39.2617 12.7378 -3.29487 -49.8028 -1.20504 7.31142 6.21881 26.5998 -0.943507 33.1454 -0.0 -0.0 -0.0 0.0 -0.0 27.3289 2.15962 4.98591 -33.7428 0.117392 -5.10298 21.1766 24.0178 3.35357 -10.4399 0.0 0.0 0.0 0.0 0.0 
1013.76014905 726.108 -1722.87128056 -10.2335699169 40.3723788435 2.18450570727 4.5554 0.362865 1.06081 4.55598 0.294632 1.08175 4.56111 0.149564 1.11113 4.55953 0.323159 1.07357 -13.0654 18.8761 -1.76478 -14.1431 37.0205 4.51077 -0.0 0.0 -0.0 3.72377 4.24253 7.3926 -42.8092 -33.6739 85.638 0.60805 -16.763 0.0895891 -18.4352 -1.00059 2.12418 -3.82809 16.8855 -16.7674 -0.0 0.0 -0.0 8.73063 5.02082 -17.1356 6.25208 49.1591 -70.7376 0.601044 16.5805 -0.0875792 38.0528 0.251876 4.76629 1.05495 -2.282 -7.98399 0.0 0.0 0.0 41.2119 11.1646 -6.26699 -44.7074 -0.793078 6.64432 -2.34778 30.643 0.372904 31.1161 -0.0 -0.0 -0.0 0.0 -0.0 27.0561 2.24109 6.17811 -36.4546 0.256752 -5.49555 20.8329 23.5454 3.28947 -10.7366 0.0 0.0 0.0 0.0 0.0 
